<?xml version="1.0" standalone="no"?>
<!DOCTYPE svg PUBLIC "-//W3C//DTD SVG 20010904//EN"
 "http://www.w3.org/TR/2001/REC-SVG-20010904/DTD/svg10.dtd">
<svg version="1.0" xmlns="http://www.w3.org/2000/svg"
 width="159.000000pt" height="159.000000pt" viewBox="0 0 159.000000 159.000000"
 preserveAspectRatio="xMidYMid meet">
<metadata>
Created by potrace 1.11, written by Peter Selinger 2001-2013
</metadata>
<g transform="translate(0.000000,159.000000) scale(0.100000,-0.100000)"
fill="#000000" stroke="none">
<path d="M0 795 l0 -795 773 1 c424 0 763 4 753 8 -13 5 -16 10 -8 15 15 9 63
-4 56 -15 -3 -5 0 -9 5 -9 8 0 11 242 11 795 l0 795 -566 0 c-377 0 -563 -3
-559 -10 7 -12 -22 -26 -33 -16 -3 4 0 11 8 16 10 6 -68 10 -212 10 l-228 0 0
-795z m731 485 c163 -6 387 -10 497 -10 110 0 207 -3 216 -6 13 -5 16 -22 16
-79 l0 -73 -337 -336 c-275 -273 -335 -338 -323 -347 12 -8 10 -9 -7 -4 -13 3
-23 2 -23 -3 0 -5 44 -10 98 -11 302 -3 589 -15 600 -24 14 -11 16 -115 3
-136 -8 -12 -60 -13 -338 -7 -180 4 -380 9 -443 11 -63 2 -206 7 -317 11 -127
4 -207 10 -216 18 -9 6 -17 39 -21 80 l-7 68 53 52 c30 28 93 85 142 126 48
41 123 107 165 145 43 39 122 108 176 155 126 109 219 192 223 200 1 4 -166
10 -372 14 -207 3 -382 9 -390 12 -14 5 -28 124 -18 151 4 13 14 13 623 -7z
m310 -754 c-14 -17 -55 -26 -73 -15 -15 9 23 27 61 28 19 1 21 -2 12 -13z
m-96 -26 c3 -5 -1 -10 -10 -10 -9 0 -13 5 -10 10 3 6 8 10 10 10 2 0 7 -4 10
-10z m355 -460 c0 -4 -6 -10 -14 -13 -10 -4 -12 0 -9 14 5 18 23 18 23 -1z
m-120 -10 c0 -5 -9 -10 -20 -10 -11 0 -20 5 -20 10 0 6 9 10 20 10 11 0 20 -4
20 -10z"/>
</g>
</svg>
