<svg viewBox="-0.58708521532 3.6773137444 17.980408239179997 19.291768380363635" version="1.1" id="svg177" xmlns="http://www.w3.org/2000/svg" style="max-height: 500px" width="17.980408239179997" height="19.291768380363635">
  <path fill="currentColor" d="m 57.17002,0 a 0.672,0.672 0 0 0 -0.66016,0.67968 v 20.67774 a 0.667,0.667 0 0 0 0.6543,0.67773 h 2.96093 a 0.665,0.665 0 0 0 0.66016,-0.66797 V 0.67968 A 0.672,0.672 0 0 0 60.12509,0 Z M 8.2247,4.27539 c -0.836,0 -2.5182,0.0564 -2.6582,0.0664 a 5.883,5.883 0 0 0 -5.5,5.88281 C 0.0475,10.4746 0.0364,10.884 0.0274,11.125 0.0274,11.191 0,12.77992 0,13.16992 c 0,0.391 0.0274,1.97992 0.0274,2.04492 0.009,0.233 0.0201,0.64044 0.0391,0.89844 a 5.882,5.882 0 0 0 5.50977,5.87695 c 0.139,0.009 1.81815,0.0566 2.66015,0.0566 h 1.09961 a 0.688,0.688 0 0 0 0.6543,-0.66992 V 18.44917 A 0.689,0.689 0 0 0 9.33994,17.76949 H 8.2247 c -0.636,0 -1.75568,-0.008 -2.30468,-0.0547 A 1.692,1.692 0 0 1 4.33994,16.01362 c -0.037,-0.938 -0.0449,-1.76575 -0.0449,-2.84375 0,-1.078 0.005,-1.91652 0.0449,-2.85352 A 1.7,1.7 0 0 1 5.92002,8.61518 c 0.529,-0.056 1.66478,-0.0645 2.30078,-0.0645 0.636,0 1.75483,0.008 2.29883,0.0547 a 1.7,1.7 0 0 1 1.58007,1.70117 c 0.037,0.938 0.0469,1.78256 0.0469,2.85156 v 8.20703 a 0.688,0.688 0 0 0 0.65039,0.66992 h 2.96485 a 0.686,0.686 0 0 0 0.66015,-0.67968 c 0.008,-2.063 0.008,-8.05622 0.008,-8.19922 -0.008,-0.391 -0.0371,-1.97993 -0.0371,-2.04493 l -0.008,0.004 c -0.009,-0.241 -0.0181,-0.64239 -0.0371,-0.90039 a 5.868,5.868 0 0 0 -5.5,-5.87304 C 10.70879,4.3328 9.06247,4.2854 8.23647,4.2754 Z m 36.66211,0 c -0.837,0 -2.52015,0.0564 -2.66015,0.0664 a 5.876,5.876 0 0 0 -5.50977,5.8711 c -0.019,0.251 -0.0301,0.66039 -0.0391,0.90039 0,0.066 -0.0273,1.65392 -0.0273,2.04492 0,0.39 0.0273,1.97897 0.0273,2.04297 0.009,0.233 0.0201,0.64239 0.0391,0.90039 a 5.881,5.881 0 0 0 5.50977,5.87695 c 0.139,0.009 1.8162,0.0547 2.6582,0.0547 h 1.09961 a 0.689,0.689 0 0 0 0.65234,-0.66992 V 18.43751 A 0.684,0.684 0 0 0 45.98447,17.75782 H 44.879 c -0.636,0 -1.75569,-0.009 -2.30469,-0.0547 A 1.693,1.693 0 0 1 40.99424,16.0039 c -0.037,-0.938 -0.0469,-1.76675 -0.0469,-2.84375 0,-1.077 0.01,-1.91552 0.0469,-2.85352 a 1.7,1.7 0 0 1 1.58007,-1.69922 c 0.539,-0.046 1.67269,-0.0566 2.30469,-0.0566 0.632,0 1.75678,0.01 2.30078,0.0566 a 1.692,1.692 0 0 1 1.58008,1.69922 c 0.037,0.938 0.0449,1.78452 0.0449,2.85352 v 8.20508 a 0.682,0.682 0 0 0 0.65039,0.66992 h 2.96094 a 0.677,0.677 0 0 0 0.64648,-0.67969 c 0,-2.063 0.008,-8.05621 0.008,-8.19921 0.019,-0.391 -0.008,-1.97993 -0.0176,-2.04493 l 0.004,0.004 c 0,-0.241 -0.0191,-0.64239 -0.0371,-0.90039 a 5.869,5.869 0 0 0 -5.5,-5.87304 c -0.139,-0.009 -1.79309,-0.0564 -2.62109,-0.0664 z m 27.48047,0 c -0.827,0 -2.48133,0.0564 -2.61133,0.0664 a 5.855,5.855 0 0 0 -5.5,5.87305 c -0.019,0.26 -0.0293,0.66844 -0.0293,0.89844 0,0.066 -0.0273,1.65392 -0.0273,2.04492 h -0.006 c 0,0.39 0.0273,1.98092 0.0273,2.04492 0,0.233 0.0193,0.64239 0.0293,0.90039 a 5.867,5.867 0 0 0 5.5,5.87305 c 0.13,0.009 1.78433,0.0564 2.61133,0.0664 h 0.006 c 0.826,0 2.5182,-0.0564 2.6582,-0.0664 a 5.862,5.862 0 0 0 5.5,-5.87305 c 0.019,-0.25 0.0371,-0.66939 0.0371,-0.90039 0,-0.065 0.0293,-1.65492 0.0293,-2.04492 0,-0.391 -0.0293,-1.97992 -0.0293,-2.04492 0,-0.241 -0.0181,-0.64844 -0.0371,-0.89844 a 5.874,5.874 0 0 0 -5.5,-5.87305 c -0.139,-0.009 -1.8162,-0.0564 -2.6582,-0.0664 z m 19.45313,0 c -0.827,0 -2.51821,0.0564 -2.65821,0.0664 a 5.882,5.882 0 0 0 -5.51757,5.8711 c -0.009,0.251 -0.0293,0.66039 -0.0293,0.90039 0,0.066 -0.0273,1.65392 -0.0273,2.04492 0,0.39 0.0273,1.97897 0.0273,2.04297 0.009,0.233 0.0193,0.64239 0.0293,0.90039 a 5.881,5.881 0 0 0 5.51171,5.87304 c 0.13,0.009 1.81621,0.0566 2.65821,0.0566 h 1.10547 a 0.689,0.689 0 0 0 0.65039,-0.66992 v -2.92773 a 0.692,0.692 0 0 0 -0.66016,-0.67774 h -1.10937 c -0.636,0 -1.75569,-0.0106 -2.30469,-0.0566 a 1.69,1.69 0 0 1 -1.57813,-1.6914 c -0.038,-0.948 -0.0566,-1.76575 -0.0566,-2.84375 0,-1.078 0.01,-1.91357 0.0566,-2.85157 a 1.7,1.7 0 0 1 1.57813,-1.70117 c 0.539,-0.046 1.67269,-0.0547 2.30469,-0.0547 0.632,0 1.75678,0.008 2.30078,0.0547 a 1.692,1.692 0 0 1 1.58008,1.70118 c 0.037,0.938 0.0449,1.78356 0.0449,2.85156 v 12.51953 a 0.679,0.679 0 0 0 0.65039,0.6582 h 2.96484 a 0.683,0.683 0 0 0 0.65039,-0.67969 c 0,-2.072 0.01,-12.356 0.01,-12.5 0.008,-0.4 -0.0195,-1.98673 -0.0195,-2.05273 l -0.002,0.006 c -0.009,-0.241 -0.0191,-0.64239 -0.0371,-0.90039 a 5.875,5.875 0 0 0 -5.5,-5.87305 c -0.139,-0.009 -1.78433,-0.0564 -2.61133,-0.0664 z m -60.25,0.21289 c -0.427,0 -0.754,0.12226 -0.875,0.44726 L 26.56064,16.04101 22.42588,4.93554 c -0.121,-0.325 -0.447,-0.44531 -0.875,-0.44531 h -3.11329 c -0.26,0 -0.68554,0.28758 -0.43554,0.89258 l 6.61523,16.23437 a 0.7,0.7 0 0 0 0.61328,0.42969 H 27.879 a 0.658,0.658 0 0 0 0.61328,-0.42969 L 35.10556,5.38281 c 0.261,-0.6 -0.16578,-0.89258 -0.42578,-0.89258 l 0.004,-0.002 z m 40.82812,4.06054 c 0.632,0 1.75569,0.01 2.30469,0.0566 a 1.692,1.692 0 0 1 1.58008,1.69922 c 0.037,0.938 0.0449,1.77652 0.0449,2.85352 0,1.077 -0.008,1.90775 -0.0449,2.84375 a 1.706,1.706 0 0 1 -1.58008,1.69922 c -0.539,0.045 -1.67269,0.0547 -2.30469,0.0547 -0.632,0 -1.75569,-0.009 -2.30469,-0.0547 a 1.7,1.7 0 0 1 -1.58007,-1.69922 c -0.038,-0.938 -0.0449,-1.76675 -0.0449,-2.84375 0,-1.077 0.007,-1.91552 0.0449,-2.85352 a 1.7,1.7 0 0 1 1.58007,-1.69922 c 0.539,-0.046 1.67269,-0.0566 2.30469,-0.0566 z" id="path74"/>
</svg>
